<svg width="48" height="48" viewBox="0 0 48 48" fill="none" xmlns="http://www.w3.org/2000/svg">
<path d="M5.37012 17.53C5.37005 17.3178 5.41246 17.1077 5.49486 16.9121C5.57725 16.7166 5.69796 16.5395 5.84987 16.3913C6.00178 16.2431 6.18181 16.1269 6.37936 16.0494C6.57691 15.9718 6.78797 15.9347 7.00012 15.94H30.1401C30.5565 15.94 30.9558 16.1054 31.2503 16.3998C31.5447 16.6943 31.7101 17.0936 31.7101 17.51V20C31.7101 20.4164 31.5447 20.8157 31.2503 21.1102C30.9558 21.4046 30.5565 21.57 30.1401 21.57H7.00012C6.78895 21.5781 6.57832 21.5434 6.38086 21.4682C6.1834 21.3929 6.00317 21.2785 5.85097 21.1319C5.69876 20.9853 5.57772 20.8095 5.4951 20.615C5.41247 20.4205 5.36996 20.2113 5.37012 20V20V17.53ZM24.0001 40.91C24.0001 41.33 23.834 41.7329 23.538 42.0308C23.2419 42.3287 22.8401 42.4974 22.4201 42.5H7.00012C6.57842 42.5 6.174 42.3325 5.87582 42.0343C5.57763 41.7361 5.41012 41.3317 5.41012 40.91V38.42C5.41798 38.0035 5.58896 37.6068 5.88629 37.315C6.18363 37.0233 6.58357 36.8599 7.00012 36.86H22.4201C22.8357 36.86 23.2346 37.0237 23.5303 37.3157C23.8261 37.6077 23.9949 38.0044 24.0001 38.42V40.91ZM39.4101 30.47C39.4101 30.889 39.2437 31.2909 38.9473 31.5872C38.651 31.8835 38.2492 32.05 37.8301 32.05H7.00012C6.58095 32.0474 6.17953 31.8804 5.8822 31.585C5.58486 31.2895 5.41535 30.8891 5.41012 30.47V28C5.40206 27.5853 5.55845 27.1842 5.84512 26.8844C6.13179 26.5847 6.52546 26.4105 6.94012 26.4H37.8701C38.0805 26.3973 38.2893 26.4369 38.4841 26.5165C38.6789 26.596 38.8557 26.7139 39.004 26.8632C39.1524 27.0125 39.2692 27.19 39.3475 27.3853C39.4259 27.5806 39.4642 27.7896 39.4601 28V28L39.4101 30.47ZM42.5901 9.56C42.5928 9.76955 42.5535 9.97751 42.4746 10.1716C42.3956 10.3658 42.2786 10.5421 42.1304 10.6903C41.9822 10.8385 41.8059 10.9555 41.6117 11.0344C41.4176 11.1134 41.2097 11.1527 41.0001 11.15H7.00012C6.78797 11.1553 6.57691 11.1182 6.37936 11.0406C6.18181 10.9631 6.00178 10.8469 5.84987 10.6987C5.69796 10.5505 5.57725 10.3734 5.49486 10.1778C5.41246 9.98229 5.37005 9.77221 5.37012 9.56V9.56V7.07C5.37012 6.65361 5.53553 6.25427 5.82996 5.95984C6.12439 5.66541 6.52373 5.5 6.94012 5.5H41.0601C41.4765 5.5 41.8758 5.66541 42.1703 5.95984C42.4647 6.25427 42.6301 6.65361 42.6301 7.07V7.07L42.5901 9.56Z" stroke="white" stroke-linecap="round" stroke-linejoin="round"/>
</svg>
