<svg width="22" height="20" viewBox="0 0 22 20" fill="none" xmlns="http://www.w3.org/2000/svg">
<path fill-rule="evenodd" clip-rule="evenodd" d="M20.7907 8.49731L13.3179 1.19341C12.3722 0.268863 10.8387 0.268863 9.89292 1.19341C8.9473 2.11778 8.9473 3.61644 9.89292 4.54081L13.3238 7.80398H2.92164C1.58414 7.80398 0.5 8.86375 0.5 10.1709C0.5 11.4783 1.58414 12.538 2.92164 12.538H13.3238L9.89292 15.833C8.9473 16.7258 8.9473 18.2242 9.89292 19.2372C10.3659 19.6111 10.9857 19.8421 11.6053 19.8421C12.2252 19.8421 12.845 19.6111 13.3179 19.2372L20.7907 11.8447C21.7365 10.9203 21.7365 9.42168 20.7907 8.49731Z" fill="#2D4B70"/>
</svg>
