<?xml version="1.0" ?><!DOCTYPE svg  PUBLIC '-//W3C//DTD SVG 1.1//EN'  'http://www.w3.org/Graphics/SVG/1.1/DTD/svg11.dtd'><svg enable-background="new 0 0 128 128" height="128px" id="Layer_1" version="1.1" viewBox="0 0 128 128" width="128px" xml:space="preserve" xmlns="http://www.w3.org/2000/svg" xmlns:xlink="http://www.w3.org/1999/xlink"><path d="M75.149,114.852c-0.51,0-1.019-0.193-1.409-0.58L12.59,53.571c-0.378-0.375-0.591-0.887-0.591-1.419L12,14.452  c0-1.104,0.896-2,2-2h37.697c0.528,0,1.034,0.208,1.409,0.581l61.15,60.702c0.377,0.375,0.59,0.885,0.591,1.416  c0.001,0.532-0.21,1.043-0.586,1.418l-37.698,37.698C76.173,114.656,75.661,114.852,75.149,114.852z M15.999,51.319l59.146,58.709  l34.869-34.868L50.873,16.452H16L15.999,51.319z"/><path d="M34.52,44.782c-2.619,0-5.082-1.02-6.935-2.872c-3.822-3.825-3.822-10.047-0.001-13.871  c1.854-1.853,4.316-2.873,6.936-2.873c2.62,0,5.083,1.02,6.936,2.872c3.823,3.825,3.823,10.048,0,13.872  C39.603,43.762,37.14,44.782,34.52,44.782z M34.52,29.166c-1.551,0-3.009,0.604-4.106,1.701c-2.263,2.265-2.263,5.95,0.001,8.215  c1.097,1.096,2.555,1.7,4.105,1.7c1.552,0,3.01-0.604,4.107-1.701c2.264-2.265,2.264-5.95,0-8.215  C37.529,29.77,36.071,29.166,34.52,29.166z"/></svg>